<svg xmlns="http://www.w3.org/2000/svg" xml:space="preserve" id="Layer_1" x="0" y="0" version="1.1" viewBox="0 0 76.4 24">
    <style>
        .st0{fill:#fff}.st1{fill:#ed3024}
    </style>
    <path d="M3.9 0h68.7c2.1 0 3.9 1.7 3.9 3.9v16.3c0 2.1-1.7 3.9-3.9 3.9H3.9a4 4 0 0 1-3.9-4V3.9C0 1.7 1.7 0 3.9 0" class="st0"/>
    <path d="M72.5 1.5H22.8c.4.5.7 1.1.7 1.7v17.5c0 .6-.2 1.3-.7 1.7h49.7c1.3 0 2.4-1.1 2.4-2.4V3.8c0-1.3-1.1-2.3-2.4-2.3m-52.4 0H3.9c-1.3 0-2.4 1.1-2.4 2.4v16.3c0 1.3 1.1 2.4 2.4 2.4h16.3c1.3 0 2.4-1.1 2.3-2.4V3.8c0-1.3-1.1-2.3-2.4-2.3" class="st0"/>
    <path d="M72.5 1.5H22.8c.4.5.7 1.1.7 1.7v17.5c0 .6-.2 1.3-.7 1.7h49.7c1.3 0 2.4-1.1 2.4-2.4V3.8c0-1.3-1.1-2.3-2.4-2.3" class="st1"/>
    <path d="M20.1 1.5H3.9c-1.3 0-2.4 1.1-2.4 2.4v16.3c0 1.3 1.1 2.4 2.4 2.4h16.3c1.3 0 2.4-1.1 2.3-2.4V3.8c0-1.3-1.1-2.3-2.4-2.3" class="st0"/>
    <path d="M21.6 20.1c0 .8-.6 1.4-1.4 1.4H3.9c-.8 0-1.4-.7-1.4-1.4V3.8c0-.8.6-1.4 1.4-1.4h16.2c.8 0 1.4.6 1.4 1.4v16.3zM20.1 1.5H3.9c-1.3 0-2.4 1.1-2.4 2.4v16.3c0 1.3 1.1 2.4 2.4 2.4h16.3c1.3 0 2.4-1.1 2.3-2.4V3.8c0-1.3-1.1-2.3-2.4-2.3" class="st1"/>
    <path d="m12.9 18.3.3-.9.8-.3 1.9-3.7-2.8 1.4h-2.3l-.8 1.4.8 1.2-.2.9H7.7l.2-.8.8-.5-.7-1.8-1.7 2.3.2.8H4l.3-1.1.5-.3L6 15.1l-.5-1.6-.9.4L5.9 10l-.6-.9.3-.5.9.7.6-.9H5v.5h-.6l.1-.9H7l-.1-.4-1.3.2-.4-1.2 1.7-.1.1-.3h2.2l1.4-.5-.4 1.5.5-.4.2 4H18v-.9h-6.1L11.7 8l.2-1.8h7.3v2l-.8-1.1h-5.7l-.1.9.1.9h5.7l.8.8v3.2l.9 3.5-.6 1.9h-2.7l.3-.9.9-.2.4-.8-1.1-1.2-1.5 2.1-.1 1z" style="fill:#231f20"/>
    <path d="M35.2 14.3c-.2.4-.4.8-.7 1.1s-.8.4-1.2.4h-.4c-.1 0-.2 0-.3-.1l-2.1-4.3V16c0 .4 0 .8.1 1.2.1.3.2.5.3.8l-.3.1-.4.1h-.9c-.5 0-1.1-.1-1.5-.4s-.6-.9-.6-1.4l.2-8.2c0-.3 0-.6-.1-.9s-.3-.6-.6-.7c.3-.2.6-.4 1-.6s.8-.2 1.2-.2c.3 0 .7 0 1 .1s.6.2.8.4.5.4.6.7c.2.3.4.7.5 1l1.9 4 2.8-6h1.6c.5-.1 1.1.1 1.4.5q.45.75.3 1.5v8.8c0 .2.1.4.1.6s.1.3.2.4l.3.3-.3.1-.4.1h-1.2c-.4 0-.7 0-1.1-.1-.2-.1-.5-.2-.7-.4q-.3-.3-.3-.6c-.1-.3-.1-.6-.1-.9v-4.7zm13.6-8.4 3.1 9.2c.2.7.4 1.2.6 1.6.1.4.4.7.7.8-.2.1-.3.2-.5.3s-.4.2-.7.2c-.5.1-.9.2-1.4.2s-1-.2-1.4-.5c-.4-.5-.7-1-.8-1.6l-.1-.4h-3.6l-.7 2.5h-1.7c-.3 0-.7-.1-.9-.3s-.1-.7.1-1.2L45 5.9zm-3.6 7.6h2.3l-1.2-3.9zm11 4.8c-.4 0-.7 0-1.1-.1l-1.3-.3 3.2-6-2.6-4c-.3-.5-.7-.8-1.1-1.1.3-.4.7-.6 1.2-.8s1-.2 1.5-.2c.3 0 .6 0 .9.1.2.1.5.2.7.4l.6.6c.2.2.4.5.6.8l1 1.5.9-1.9c.2-.4.5-.8.8-1.2.3-.3.8-.5 1.3-.5.4 0 .7 0 1.1.1s.8.2 1.3.3l-3.4 5.7 2 2.9c.2.2 1.2 1.8 1.4 1.9.2.2.4.4.7.5-.2.2-.5.4-.8.5s-.5.3-.8.4-.7.2-1 .2-.5 0-.8-.1q-.3 0-.6-.3l-.6-.6-.7-1-1.1-1.7-.9 2-.3.6c-.1.2-.3.4-.4.5-.2.2-.4.3-.6.4-.5.3-.8.4-1.1.4M66.4 8.2v-.9c0-.2 0-.4-.1-.6 0-.2-.1-.3-.2-.5-.1-.1-.2-.3-.3-.4.2-.1.5-.1.8-.2.4-.1.9-.1 1.3-.1.7-.1 1.4.1 1.9.5.4.4.6.9.5 1.4V16c0 .3 0 .5.1.8 0 .2.1.4.2.6.1.1.1.3.2.4l.3.3c-.3.1-.6.1-.8.2h-1c-.4 0-.7 0-1.1-.1-.3-.1-.6-.2-.9-.4-.2-.2-.4-.4-.6-.7-.1-.3-.2-.7-.2-1.1z" class="st0"/>
</svg>
