<svg width="254" height="62" viewBox="0 0 254 62" fill="none" xmlns="http://www.w3.org/2000/svg">
<path d="M168.458 10.3937C167.309 5.266 164.34 1.04884 163.957 0.37793C163.334 1.33637 160.94 5.02639 159.791 9.1477C158.498 13.7003 158.306 17.7737 158.737 21.7992C159.168 25.7767 160.892 29.898 160.892 29.898C161.802 32.0545 163.143 34.3548 164.005 35.5049C165.298 33.8277 168.219 28.8438 169.177 22.3742C169.655 18.7322 169.655 15.5693 168.458 10.3937ZM163.957 34.211C163.382 33.1088 162.472 31.0482 162.377 27.8374C162.377 24.7224 163.574 22.0867 163.957 21.5116C164.292 22.0867 165.346 24.387 165.489 27.5498C165.585 30.6648 164.532 33.1088 163.957 34.211ZM168.123 19.1635C168.075 21.1283 167.836 23.1889 167.548 24.4349C167.644 22.2784 167.405 19.2593 166.926 16.9111C166.447 14.5629 165.058 10.6333 163.957 8.81225C162.951 10.5374 161.658 13.9399 160.988 16.9111C160.318 19.8823 160.318 23.4285 160.318 24.4828C160.126 23.5723 159.695 20.3615 159.839 17.1028C159.935 14.4192 160.557 11.6876 160.892 10.4416C162.185 6.22444 163.67 3.5408 163.957 3.1095C164.244 3.5408 166.112 6.84743 167.07 10.3458C167.979 13.8441 168.171 17.1986 168.123 19.1635Z" fill="white"/>
<path d="M165.968 36.7032H157.014V42.6934C157.014 42.6934 157.014 42.6934 157.014 42.6455C159.121 40.5369 162.521 40.5369 164.628 42.6455C166.735 44.7541 166.735 48.1566 164.628 50.2651C164.628 50.2651 164.628 50.2652 164.58 50.3131C164.58 50.3131 164.58 50.3131 164.532 50.361C162.425 52.4696 159.695 53.4759 156.918 53.4759C154.14 53.4759 151.411 52.4217 149.304 50.3131C145.617 46.6231 145.138 40.8724 147.963 36.6552C148.346 36.0802 148.777 35.553 149.304 35.0738C151.411 32.9652 154.188 31.9109 156.918 31.9109V17.4863C146.383 17.4863 137.811 26.0644 137.811 36.7032C137.811 47.294 146.383 55.92 157.014 55.92C162.521 55.92 167.501 53.5718 171.044 49.8339V36.7032H165.968Z" fill="white"/>
<path d="M182.345 52.4696C182.345 53.8114 182.202 55.92 179.472 55.92H176.312C173.63 55.92 173.438 53.8114 173.438 52.4696V40.1057C173.438 38.7639 173.582 36.6553 176.312 36.6553H179.472C182.154 36.6553 182.345 38.7639 182.345 40.1057V42.8372H178.514V39.7223C178.514 39.3868 178.275 39.0993 177.892 39.0993C177.652 39.0993 177.269 39.2431 177.269 39.7223V52.8051C177.269 53.2843 177.652 53.4281 177.892 53.4281C178.227 53.4281 178.514 53.1405 178.514 52.8051V48.5879H177.94V46.4793H182.345V52.4696Z" fill="white"/>
<path d="M188.762 39.0992H189.002L189.672 48.6837H188.14L188.762 39.0992ZM185.889 36.7031L183.878 55.9199H187.613L187.948 50.7923H189.768L190.103 55.9199H193.838L191.923 36.7031H185.889Z" fill="white"/>
<path d="M195.706 36.7031V39.0992H199.01L195.323 53.4759V55.9199H203.176V53.428H199.297L202.985 39.0992V36.7031H195.706Z" fill="white"/>
<path d="M211.03 36.7031H204.996V55.9199H208.827V49.4025H211.03C213.711 49.4025 213.903 47.2939 213.903 45.9521V40.1056C213.855 38.7638 213.711 36.7031 211.03 36.7031ZM210.024 46C210.024 46.623 209.737 46.9585 209.306 46.9585H208.827V39.0992H209.306C209.737 39.0992 210.024 39.4347 210.024 40.0577V46Z" fill="white"/>
<path d="M224.725 46.096V40.1057C224.725 38.7639 224.582 36.6553 221.852 36.6553H215.866V55.8721H219.697V48.7796H219.984L221.277 55.8721H225.204L223.337 48.3962C224.725 47.8691 224.725 46.6231 224.725 46.096ZM220.894 45.425C220.894 46.048 220.607 46.3835 220.176 46.3835H219.697V39.0993H220.176C220.607 39.0993 220.894 39.4348 220.894 40.0578V45.425Z" fill="white"/>
<path d="M233.345 36.7031H230.184C227.503 36.7031 227.311 38.8117 227.311 40.1535V52.5175C227.311 53.8593 227.455 55.9679 230.184 55.9679H233.345C236.026 55.9679 236.17 53.8593 236.17 52.5175V40.1056C236.17 38.7638 236.026 36.7031 233.345 36.7031ZM232.339 52.805C232.339 53.1405 232.1 53.428 231.717 53.428C231.477 53.428 231.094 53.2842 231.094 52.805V39.7222C231.094 39.243 231.477 39.0992 231.717 39.0992C232.052 39.0992 232.339 39.3868 232.339 39.7222V52.805Z" fill="white"/>
<path d="M248.237 36.7031L245.747 50.2172L243.257 36.7031H238.277V55.9199H242.108V43.8435H242.204L244.215 55.9199H247.28L249.243 43.8435H249.387V55.9199H253.217V36.7031H248.237Z" fill="white"/>
<path d="M190.869 29.6585H189.528V31.9108H188.667V26.1602H190.869C192.019 26.1602 192.737 26.9269 192.737 27.9333C192.737 28.8917 192.019 29.6585 190.869 29.6585ZM190.821 26.9269H189.528V28.8438H190.774C191.396 28.8438 191.779 28.5083 191.779 27.8854C191.827 27.3103 191.444 26.9269 190.821 26.9269Z" fill="white"/>
<path d="M193.503 31.9108V26.1602H197.19V26.9269H194.365V28.6042H196.807V29.4189H194.365V31.1441H197.19V31.9108H193.503Z" fill="white"/>
<path d="M200.303 26.9269V31.9108H199.393V26.9269H197.813V26.1602H201.883V26.9269H200.303Z" fill="white"/>
<path d="M205.81 31.9108L204.613 29.4668H203.511V31.9108H202.649V26.1602H204.9C206.001 26.1602 206.672 26.879 206.672 27.8374C206.672 28.6521 206.145 29.1793 205.523 29.3709L206.863 31.9108H205.81ZM204.756 26.9269H203.463V28.748H204.756C205.331 28.748 205.762 28.4125 205.762 27.8374C205.762 27.2624 205.379 26.9269 204.756 26.9269Z" fill="white"/>
<path d="M211.221 31.3358C210.838 31.7192 210.312 31.9588 209.689 31.9588C209.067 31.9588 208.588 31.7192 208.157 31.3358C207.582 30.7608 207.582 30.1378 207.582 29.0356C207.582 27.9333 207.582 27.2624 208.157 26.7353C208.54 26.3519 209.067 26.1123 209.689 26.1123C210.312 26.1123 210.838 26.3519 211.221 26.7353C211.796 27.3104 211.796 27.9333 211.796 29.0356C211.796 30.1378 211.796 30.8087 211.221 31.3358ZM210.551 27.2145C210.359 26.9749 210.024 26.8791 209.689 26.8791C209.354 26.8791 209.019 27.0228 208.827 27.2145C208.54 27.502 208.492 27.8375 208.492 28.9876C208.492 30.1378 208.54 30.4732 208.827 30.7608C209.019 31.0004 209.354 31.0962 209.689 31.0962C210.024 31.0962 210.359 30.9525 210.551 30.7608C210.838 30.4732 210.886 30.1378 210.886 28.9876C210.886 27.8854 210.838 27.55 210.551 27.2145Z" fill="white"/>
<path d="M212.801 31.9108V26.1602H213.711V31.1441H216.489V31.9108H212.801Z" fill="white"/>
<path d="M220.607 31.9588C219.745 31.9588 219.122 31.7671 218.548 31.1921L219.122 30.617C219.553 31.0483 219.984 31.1921 220.607 31.1921C221.373 31.1921 221.804 30.8566 221.804 30.3295C221.804 30.0899 221.708 29.8502 221.565 29.7065C221.421 29.5627 221.277 29.5148 220.942 29.4669L220.272 29.371C219.793 29.3231 219.41 29.1314 219.17 28.8918C218.883 28.6043 218.739 28.2688 218.739 27.7896C218.739 26.7832 219.458 26.1123 220.655 26.1123C221.421 26.1123 221.948 26.304 222.427 26.7832L221.852 27.3583C221.517 27.0228 221.086 26.927 220.607 26.927C219.937 26.927 219.553 27.3104 219.553 27.8375C219.553 28.0292 219.601 28.2209 219.793 28.3647C219.937 28.5084 220.176 28.6043 220.463 28.6522H221.134C221.66 28.748 221.948 28.8439 222.235 29.0835C222.57 29.371 222.714 29.7544 222.714 30.2815C222.666 31.3358 221.804 31.9588 220.607 31.9588Z" fill="white"/>
<path d="M225.539 26.9269V31.9108H224.677V26.9269H223.097V26.1602H227.12V26.9269H225.539Z" fill="white"/>
<path d="M230.902 31.9109L230.519 30.7608H228.221L227.838 31.9109H226.88L228.987 26.1123H229.705L231.812 31.9109H230.902ZM229.37 27.4541L228.46 30.0419H230.232L229.37 27.4541Z" fill="white"/>
<path d="M234.015 26.9269V31.9108H233.153V26.9269H231.573V26.1602H235.643V26.9269H234.015Z" fill="white"/>
<path d="M237.415 26.1602H236.553V31.9587H237.415V26.1602Z" fill="white"/>
<path d="M242.252 31.3358C241.869 31.7192 241.342 31.9588 240.719 31.9588C240.097 31.9588 239.618 31.7192 239.187 31.3358C238.612 30.7608 238.612 30.1378 238.612 29.0356C238.612 27.9333 238.612 27.2624 239.187 26.7353C239.57 26.3519 240.097 26.1123 240.719 26.1123C241.342 26.1123 241.869 26.3519 242.252 26.7353C242.826 27.3104 242.826 27.9333 242.826 29.0356C242.778 30.1378 242.826 30.8087 242.252 31.3358ZM241.581 27.2145C241.39 26.9749 241.055 26.8791 240.719 26.8791C240.384 26.8791 240.049 27.0228 239.857 27.2145C239.57 27.502 239.522 27.8375 239.522 28.9876C239.522 30.1378 239.57 30.4732 239.857 30.7608C240.049 31.0004 240.384 31.0962 240.719 31.0962C241.055 31.0962 241.39 30.9525 241.581 30.7608C241.869 30.4732 241.916 30.1378 241.916 28.9876C241.916 27.8854 241.869 27.55 241.581 27.2145Z" fill="white"/>
<path d="M247.567 31.9108L244.885 27.8374V31.9108H244.023V26.1602H244.838L247.471 30.1856V26.1602H248.381V31.9108H247.567Z" fill="white"/>
<path d="M251.159 31.9588C250.297 31.9588 249.674 31.7671 249.1 31.1921L249.674 30.617C250.105 31.0483 250.536 31.1921 251.159 31.1921C251.925 31.1921 252.356 30.8566 252.356 30.3295C252.356 30.0899 252.26 29.8502 252.116 29.7065C251.973 29.5627 251.829 29.5148 251.494 29.4669L250.824 29.371C250.345 29.3231 249.962 29.1314 249.722 28.8918C249.435 28.6043 249.291 28.2688 249.291 27.7896C249.291 26.7832 250.009 26.1123 251.207 26.1123C251.973 26.1123 252.5 26.304 252.978 26.7832L252.404 27.3583C252.069 27.0228 251.638 26.927 251.159 26.927C250.488 26.927 250.105 27.3104 250.105 27.8375C250.105 28.0292 250.153 28.2209 250.345 28.3647C250.488 28.5084 250.728 28.6043 251.015 28.6522L251.685 28.748C252.212 28.8439 252.5 28.9397 252.787 29.1793C253.122 29.4669 253.266 29.8502 253.266 30.3774C253.218 31.3358 252.356 31.9588 251.159 31.9588Z" fill="white"/>
<path d="M45.0079 26.9445C45.2186 27.0148 35.6652 24.5895 32.6447 22.8672C31.0993 23.6053 30.0456 24.4489 30.0456 25.3979C30.0456 30.3539 49.047 29.5103 48.5201 36.2941C48.0987 41.8124 38.0185 44.9055 29.589 46.4872C29.9051 47.4714 29.6593 48.4907 28.7461 49.5452C27.3412 51.0917 25.3743 52.3922 23.1616 53.4467C19.4385 55.5205 19.3683 55.8017 20.6678 55.8017C34.4711 53.5873 40.7229 52.7789 50.206 48.4556C56.1769 45.6788 60.497 42.0936 60.8482 37.4891C61.3048 31.5841 53.0861 29.0885 45.0079 26.9445Z" fill="white"/>
<path d="M30.8533 41.5307C30.8533 36.5747 11.852 37.4183 12.3788 30.6346C12.8003 25.1162 22.8805 22.0231 31.3099 20.4766C30.9938 19.4924 31.2397 18.4731 32.1529 17.4186C33.5578 15.8721 35.5247 14.5715 37.7374 13.5171C41.4604 11.4433 41.5306 11.1621 40.2311 11.1621C26.4279 13.3765 20.176 14.1849 10.6929 18.5082C4.68693 21.285 0.401962 24.9053 0.0156125 29.4747C-0.40586 35.3445 7.77773 37.8401 15.8911 39.9842C15.6803 39.9139 25.2337 42.3391 28.2543 44.0614C29.7997 43.3585 30.8533 42.5149 30.8533 41.5307Z" fill="white"/>
<path d="M68.751 24.4838V17.3135H72.5794C72.7198 17.3135 72.7901 17.3135 72.8955 17.3486C73.1062 17.3838 73.3169 17.4541 73.4925 17.5244C73.5628 17.5595 73.6682 17.6298 73.7735 17.665C73.7735 17.665 73.7735 17.665 73.8086 17.665C74.2301 17.9462 74.7218 18.4734 75.2838 19.317L81.4303 28.4557V24.4838V19.4576C81.4303 18.2625 82.3786 17.3135 83.5727 17.3135H86.1367V25.0814V35.4151H82.4488C82.3083 35.4151 82.203 35.4151 82.1327 35.38C81.922 35.3448 81.7112 35.2745 81.5356 35.2042C81.4654 35.1691 81.36 35.0988 81.2546 35.0636C81.2546 35.0636 81.2546 35.0636 81.2195 35.0636C80.7981 34.7825 80.3063 34.2552 79.7444 33.4116L73.5628 24.2378C73.4925 24.1675 73.4574 24.1324 73.4574 24.1324V25.1517V35.4151H70.8935C69.6993 35.4151 68.751 34.4661 68.751 33.2711V24.4838Z" fill="white"/>
<path d="M94.7416 19.4576C94.7416 18.2625 93.7933 17.3135 92.5991 17.3135H90.0352V33.2359C90.0352 34.431 90.9835 35.38 92.1777 35.38H94.7416V19.4576Z" fill="white"/>
<path d="M111.425 26.0655C110.617 25.468 109.388 25.0111 107.702 24.6596C104.4 23.9215 103.944 23.816 103.909 23.816C103.909 23.816 102.785 23.57 102.785 22.6561C102.785 21.9883 103.171 21.5665 103.944 21.3907C104.19 21.3204 104.471 21.3204 104.822 21.3204H106.578H109.493H110.512C110.828 21.3204 111.109 21.2501 111.39 21.1447C111.846 20.9338 112.233 20.5472 112.443 20.0902C112.584 19.809 112.654 19.4927 112.654 19.1764V17.7353V17.3135H106.578H105.981C103.276 17.3135 101.239 17.911 99.8694 19.0709C99.1319 19.7036 98.6402 20.512 98.3592 21.461C98.2187 22.0234 98.1484 22.4804 98.1484 23.0076C98.1484 24.5893 98.7455 25.8546 99.9046 26.7334C100.712 27.3309 101.977 27.823 103.628 28.1393C106.051 28.6666 107.315 28.9477 107.421 28.9829C107.456 28.9829 108.545 29.2641 108.545 30.1428C108.545 30.8106 108.158 31.2324 107.386 31.4082C107.14 31.4785 106.824 31.4785 106.508 31.4785H104.752H100.818C100.502 31.4785 100.221 31.5488 99.9397 31.6542C99.4831 31.8651 99.0968 32.2517 98.886 32.7087C98.7455 32.9899 98.6753 33.3062 98.6753 33.6225V35.0636V35.4854H104.752H105.349C108.053 35.4854 110.09 34.8879 111.46 33.728C112.198 33.0953 112.689 32.2869 112.97 31.3379C113.111 30.7755 113.181 30.3186 113.181 29.7913C113.181 28.1745 112.584 26.9091 111.425 26.0655Z" fill="white"/>
<path d="M100.467 48.5254C99.3779 48.5254 98.7457 47.5764 98.7457 46.1705C98.7457 44.7996 99.3779 43.7803 100.467 43.7803C101.556 43.7803 102.153 44.8699 102.153 46.1353C102.153 47.5061 101.556 48.5254 100.467 48.5254Z" fill="white"/>
<path d="M75.3891 45.9244C75.5296 45.9596 75.6701 45.9596 75.916 45.9596C76.7589 45.9596 77.2858 45.5378 77.2858 44.8348C77.2858 44.2021 76.8292 43.8155 76.0213 43.8155C75.8209 43.8155 75.6629 43.8296 75.5472 43.84C75.4804 43.8459 75.4277 43.8507 75.3891 43.8507V45.9244Z" fill="white"/>
<path d="M92.8099 45.7487H93.4421C94.25 45.7487 94.7066 45.3621 94.7066 44.7294C94.7066 44.0967 94.25 43.7452 93.5475 43.7452C93.3065 43.7452 93.1338 43.7589 93.0039 43.7692C92.9256 43.7754 92.8628 43.7804 92.8099 43.7804V45.7487Z" fill="white"/>
<path fill-rule="evenodd" clip-rule="evenodd" d="M68.6455 44.6591C68.6455 41.8472 70.9285 39.5625 73.7383 39.5625H113.041V47.6116C113.041 50.4586 110.758 52.7433 107.948 52.7433H68.6455V44.6591ZM100.361 49.7908C102.434 49.7908 103.838 48.3848 103.838 46.065C103.838 44.1318 102.679 42.515 100.502 42.515C98.4296 42.515 97.0598 44.0967 97.0598 46.2056C97.0598 48.2091 98.2891 49.7908 100.361 49.7908ZM73.8086 42.7259C74.3003 42.6556 75.0028 42.5853 75.9511 42.5853C76.9345 42.5853 77.637 42.761 78.0936 43.1477C78.5502 43.4992 78.8311 44.0967 78.8311 44.7645C78.8311 45.4675 78.6204 46.065 78.1989 46.4517C77.6721 46.9438 76.8643 47.1898 75.916 47.1898C75.7052 47.1898 75.5296 47.1898 75.3891 47.1546V49.6854H73.8086V42.7259ZM84.0644 46.6977H81.4653V48.3848H84.3805V49.6854H79.8848V42.6204H84.24V43.9209H81.4653V45.3972H84.0644V46.6977ZM84.9776 43.9561H86.8742V49.6854H88.4547V43.9561H90.3864V42.6204H84.9776V43.9561ZM91.2294 42.7259C91.7562 42.6556 92.4938 42.5853 93.3368 42.5853C94.3904 42.5853 95.128 42.7259 95.6197 43.1477C96.0412 43.4992 96.2871 43.9912 96.2871 44.6239C96.2871 45.5026 95.6549 46.1353 95.0578 46.3462V46.3814C95.5495 46.5923 95.8305 47.0492 96.0061 47.6819C96.0534 47.8633 96.1007 48.0501 96.1472 48.2338L96.1493 48.2423L96.15 48.2448C96.3096 48.8756 96.4597 49.4685 96.5681 49.6854H94.9524C94.847 49.4745 94.6714 48.9121 94.4607 48.0334C94.25 47.1546 93.969 46.9086 93.3016 46.9086H92.845V49.6854H91.2645V42.7259H91.2294ZM104.892 42.6204H106.473V48.3497H109.283V49.6854H104.892V42.6204Z" fill="white"/>
</svg>
